<svg xmlns="http://www.w3.org/2000/svg" width="1100" height="500" viewBox="0 0 1100 500">
<rect width="1100" height="500" fill="white"/>
<text x="30" y="38" font-family="Arial" font-size="24" font-weight="700">Picnic pictures A and B</text>
<g transform="translate(35,70)"><text x="0" y="25" font-family="Arial" font-size="26" font-weight="700">A</text>
<rect x="40" y="40" width="450" height="330" rx="12" fill="#fafafa" stroke="#333" stroke-width="3"/>
<ellipse cx="155" cy="170" rx="70" ry="28" fill="white" stroke="#333" stroke-width="3"/><text x="124" y="177" font-family="Arial" font-size="18">plate</text>
<rect x="275" y="135" width="45" height="80" rx="8" fill="white" stroke="#333" stroke-width="3"/><rect x="395" y="135" width="45" height="80" rx="8" fill="white" stroke="#333" stroke-width="3"/><text x="284" y="232" font-family="Arial" font-size="16">cup</text><text x="404" y="232" font-family="Arial" font-size="16">cup</text>
<rect x="335" y="125" width="42" height="110" rx="14" fill="#eee" stroke="#333" stroke-width="3"/><text x="323" y="260" font-family="Arial" font-size="16">bottle</text>
<rect x="155" y="265" width="210" height="85" rx="8" fill="white" stroke="#333" stroke-width="3"/><text x="220" y="292" font-family="Arial" font-size="18">lunch box</text><rect x="200" y="305" width="120" height="25" fill="#ddd" stroke="#333"/><text x="205" y="324" font-family="Arial" font-size="15">sandwiches</text></g>
<g transform="translate(575,70)"><text x="0" y="25" font-family="Arial" font-size="26" font-weight="700">B</text>
<rect x="40" y="40" width="450" height="330" rx="12" fill="#fafafa" stroke="#333" stroke-width="3"/>
<ellipse cx="155" cy="170" rx="70" ry="28" fill="white" stroke="#333" stroke-width="3"/><text x="124" y="177" font-family="Arial" font-size="18">plate</text>
<rect x="275" y="135" width="45" height="80" rx="8" fill="white" stroke="#333" stroke-width="3"/><rect x="395" y="135" width="45" height="80" rx="8" fill="white" stroke="#333" stroke-width="3"/><text x="284" y="232" font-family="Arial" font-size="16">cup</text><text x="404" y="232" font-family="Arial" font-size="16">cup</text>
<rect x="135" y="95" width="42" height="110" rx="14" fill="#eee" stroke="#333" stroke-width="3"/><text x="114" y="78" font-family="Arial" font-size="16">bottle</text>
<rect x="155" y="265" width="210" height="85" rx="8" fill="white" stroke="#333" stroke-width="3"/><text x="220" y="292" font-family="Arial" font-size="18">lunch box</text><rect x="200" y="365" width="120" height="25" fill="#ddd" stroke="#333"/><text x="205" y="384" font-family="Arial" font-size="15">sandwiches</text></g>
</svg>