<svg xmlns="http://www.w3.org/2000/svg" width="960" height="520" viewBox="0 0 960 520">
<rect width="960" height="520" fill="white"/><text x="30" y="38" font-family="Arial" font-size="24" font-weight="700">Living-room labeling picture</text>
<rect x="210" y="200" width="420" height="160" rx="24" fill="#f4f4f4" stroke="#333" stroke-width="4"/><rect x="255" y="160" width="330" height="55" rx="16" fill="#fafafa" stroke="#333" stroke-width="3"/>
<ellipse cx="410" cy="178" rx="48" ry="28" fill="#ddd" stroke="#333" stroke-width="3"/><circle cx="435" cy="162" r="15" fill="#ddd" stroke="#333" stroke-width="3"/>
<circle cx="420" cy="385" r="28" fill="#eee" stroke="#333" stroke-width="3"/>
<line x1="700" y1="185" x2="700" y2="355" stroke="#333" stroke-width="5"/><path d="M650 185 q50 -75 100 0z" fill="#eee" stroke="#333" stroke-width="3"/>
<line x1="355" y1="120" x2="395" y2="160" stroke="#555" stroke-width="2"/><rect x="235" y="85" width="120" height="38" fill="white" stroke="#777" stroke-dasharray="6 5"/><text x="255" y="110" font-family="Arial" font-size="16">label</text>
<line x1="370" y1="440" x2="405" y2="405" stroke="#555" stroke-width="2"/><rect x="245" y="425" width="120" height="38" fill="white" stroke="#777" stroke-dasharray="6 5"/><text x="265" y="450" font-family="Arial" font-size="16">label</text>
<line x1="790" y1="245" x2="720" y2="235" stroke="#555" stroke-width="2"/><rect x="790" y="225" width="120" height="38" fill="white" stroke="#777" stroke-dasharray="6 5"/><text x="810" y="250" font-family="Arial" font-size="16">label</text>
<text x="35" y="500" font-family="Arial" font-size="18">Words: cat   toy   lamp</text>
</svg>